%TF.GenerationSoftware,KiCad,Pcbnew,5.1.6-c6e7f7d~86~ubuntu18.04.1*%
%TF.CreationDate,2020-05-16T18:56:39+02:00*%
%TF.ProjectId,slimme-meter-tra,736c696d-6d65-42d6-9d65-7465722d7472,rev?*%
%TF.SameCoordinates,Original*%
%TF.FileFunction,Soldermask,Top*%
%TF.FilePolarity,Negative*%
%FSLAX46Y46*%
G04 Gerber Fmt 4.6, Leading zero omitted, Abs format (unit mm)*
G04 Created by KiCad (PCBNEW 5.1.6-c6e7f7d~86~ubuntu18.04.1) date 2020-05-16 18:56:39*
%MOMM*%
%LPD*%
G01*
G04 APERTURE LIST*
%ADD10C,0.010000*%
%ADD11R,2.500000X5.000000*%
%ADD12R,5.000000X2.500000*%
%ADD13C,1.500000*%
%ADD14C,2.500000*%
%ADD15R,2.510000X1.000000*%
%ADD16R,0.800000X0.900000*%
G04 APERTURE END LIST*
D10*
G36*
X137910000Y-116449000D02*
G01*
X139282000Y-116449000D01*
X139282000Y-119981000D01*
X137910000Y-119981000D01*
X137910000Y-116449000D01*
G37*
X137910000Y-116449000D02*
X139282000Y-116449000D01*
X139282000Y-119981000D01*
X137910000Y-119981000D01*
X137910000Y-116449000D01*
G36*
X140450000Y-119369000D02*
G01*
X141822000Y-119369000D01*
X141822000Y-122901000D01*
X140450000Y-122901000D01*
X140450000Y-119369000D01*
G37*
X140450000Y-119369000D02*
X141822000Y-119369000D01*
X141822000Y-122901000D01*
X140450000Y-122901000D01*
X140450000Y-119369000D01*
G36*
X142990000Y-116449000D02*
G01*
X144362000Y-116449000D01*
X144362000Y-119981000D01*
X142990000Y-119981000D01*
X142990000Y-116449000D01*
G37*
X142990000Y-116449000D02*
X144362000Y-116449000D01*
X144362000Y-119981000D01*
X142990000Y-119981000D01*
X142990000Y-116449000D01*
G36*
X145530000Y-119369000D02*
G01*
X146902000Y-119369000D01*
X146902000Y-122901000D01*
X145530000Y-122901000D01*
X145530000Y-119369000D01*
G37*
X145530000Y-119369000D02*
X146902000Y-119369000D01*
X146902000Y-122901000D01*
X145530000Y-122901000D01*
X145530000Y-119369000D01*
G36*
X148070000Y-116449000D02*
G01*
X149442000Y-116449000D01*
X149442000Y-119981000D01*
X148070000Y-119981000D01*
X148070000Y-116449000D01*
G37*
X148070000Y-116449000D02*
X149442000Y-116449000D01*
X149442000Y-119981000D01*
X148070000Y-119981000D01*
X148070000Y-116449000D01*
G36*
X150610000Y-119369000D02*
G01*
X151982000Y-119369000D01*
X151982000Y-122901000D01*
X150610000Y-122901000D01*
X150610000Y-119369000D01*
G37*
X150610000Y-119369000D02*
X151982000Y-119369000D01*
X151982000Y-122901000D01*
X150610000Y-122901000D01*
X150610000Y-119369000D01*
G36*
X153150000Y-116449000D02*
G01*
X154522000Y-116449000D01*
X154522000Y-119981000D01*
X153150000Y-119981000D01*
X153150000Y-116449000D01*
G37*
X153150000Y-116449000D02*
X154522000Y-116449000D01*
X154522000Y-119981000D01*
X153150000Y-119981000D01*
X153150000Y-116449000D01*
G36*
X155690000Y-119369000D02*
G01*
X157062000Y-119369000D01*
X157062000Y-122901000D01*
X155690000Y-122901000D01*
X155690000Y-119369000D01*
G37*
X155690000Y-119369000D02*
X157062000Y-119369000D01*
X157062000Y-122901000D01*
X155690000Y-122901000D01*
X155690000Y-119369000D01*
G36*
X144406000Y-97066000D02*
G01*
X143034000Y-97066000D01*
X143034000Y-93534000D01*
X144406000Y-93534000D01*
X144406000Y-97066000D01*
G37*
X144406000Y-97066000D02*
X143034000Y-97066000D01*
X143034000Y-93534000D01*
X144406000Y-93534000D01*
X144406000Y-97066000D01*
G36*
X141866000Y-99986000D02*
G01*
X140494000Y-99986000D01*
X140494000Y-96454000D01*
X141866000Y-96454000D01*
X141866000Y-99986000D01*
G37*
X141866000Y-99986000D02*
X140494000Y-99986000D01*
X140494000Y-96454000D01*
X141866000Y-96454000D01*
X141866000Y-99986000D01*
G36*
X154566000Y-97066000D02*
G01*
X153194000Y-97066000D01*
X153194000Y-93534000D01*
X154566000Y-93534000D01*
X154566000Y-97066000D01*
G37*
X154566000Y-97066000D02*
X153194000Y-97066000D01*
X153194000Y-93534000D01*
X154566000Y-93534000D01*
X154566000Y-97066000D01*
G36*
X157106000Y-99986000D02*
G01*
X155734000Y-99986000D01*
X155734000Y-96454000D01*
X157106000Y-96454000D01*
X157106000Y-99986000D01*
G37*
X157106000Y-99986000D02*
X155734000Y-99986000D01*
X155734000Y-96454000D01*
X157106000Y-96454000D01*
X157106000Y-99986000D01*
G36*
X139326000Y-97066000D02*
G01*
X137954000Y-97066000D01*
X137954000Y-93534000D01*
X139326000Y-93534000D01*
X139326000Y-97066000D01*
G37*
X139326000Y-97066000D02*
X137954000Y-97066000D01*
X137954000Y-93534000D01*
X139326000Y-93534000D01*
X139326000Y-97066000D01*
G36*
X152026000Y-99986000D02*
G01*
X150654000Y-99986000D01*
X150654000Y-96454000D01*
X152026000Y-96454000D01*
X152026000Y-99986000D01*
G37*
X152026000Y-99986000D02*
X150654000Y-99986000D01*
X150654000Y-96454000D01*
X152026000Y-96454000D01*
X152026000Y-99986000D01*
G36*
X146946000Y-99986000D02*
G01*
X145574000Y-99986000D01*
X145574000Y-96454000D01*
X146946000Y-96454000D01*
X146946000Y-99986000D01*
G37*
X146946000Y-99986000D02*
X145574000Y-99986000D01*
X145574000Y-96454000D01*
X146946000Y-96454000D01*
X146946000Y-99986000D01*
G36*
X149486000Y-97066000D02*
G01*
X148114000Y-97066000D01*
X148114000Y-93534000D01*
X149486000Y-93534000D01*
X149486000Y-97066000D01*
G37*
X149486000Y-97066000D02*
X148114000Y-97066000D01*
X148114000Y-93534000D01*
X149486000Y-93534000D01*
X149486000Y-97066000D01*
D11*
X126800000Y-103000000D03*
X126800000Y-117500000D03*
D12*
X135600000Y-123500000D03*
X168100000Y-123500000D03*
D11*
X174200000Y-115000000D03*
X174200000Y-100500000D03*
D12*
X165600000Y-94400000D03*
X133100000Y-94400000D03*
D11*
X126900000Y-65800000D03*
X126900000Y-79800000D03*
D12*
X134000000Y-88200000D03*
X166100000Y-88100000D03*
D11*
X174400000Y-81000000D03*
X174400000Y-66900000D03*
D12*
X167200000Y-58600000D03*
X135100000Y-58600000D03*
D13*
X135500000Y-80600000D03*
D14*
X149900000Y-84200000D03*
D12*
X116500000Y-74565000D03*
X106145000Y-74565000D03*
D11*
X104875000Y-80800000D03*
X104875000Y-113400000D03*
D12*
X106000000Y-122063000D03*
X116500000Y-122190000D03*
D11*
X120700000Y-114900000D03*
X120700000Y-82820000D03*
D12*
X94500000Y-74565000D03*
X84145000Y-74565000D03*
D11*
X82875000Y-80800000D03*
X82875000Y-113400000D03*
D12*
X84000000Y-122063000D03*
X94500000Y-122190000D03*
D11*
X98700000Y-114900000D03*
X98700000Y-82820000D03*
X120800000Y-47525000D03*
X120800000Y-61600000D03*
D12*
X116500000Y-68861000D03*
X106037000Y-68861000D03*
D11*
X104900000Y-60000000D03*
X104800000Y-45500000D03*
D12*
X106037000Y-39270000D03*
X116500000Y-39270000D03*
D11*
X98800000Y-47525000D03*
X98800000Y-61600000D03*
D12*
X94500000Y-68861000D03*
X84037000Y-68861000D03*
D11*
X82900000Y-60000000D03*
X82800000Y-45500000D03*
D12*
X84037000Y-39270000D03*
X94500000Y-39270000D03*
D15*
X167421000Y-104308000D03*
X167421000Y-109388000D03*
X167421000Y-114468000D03*
X170731000Y-101768000D03*
X170731000Y-106848000D03*
X170731000Y-111928000D03*
G36*
G01*
X153385999Y-113648000D02*
X154286001Y-113648000D01*
G75*
G02*
X154536000Y-113897999I0J-249999D01*
G01*
X154536000Y-114548001D01*
G75*
G02*
X154286001Y-114798000I-249999J0D01*
G01*
X153385999Y-114798000D01*
G75*
G02*
X153136000Y-114548001I0J249999D01*
G01*
X153136000Y-113897999D01*
G75*
G02*
X153385999Y-113648000I249999J0D01*
G01*
G37*
G36*
G01*
X153385999Y-111598000D02*
X154286001Y-111598000D01*
G75*
G02*
X154536000Y-111847999I0J-249999D01*
G01*
X154536000Y-112498001D01*
G75*
G02*
X154286001Y-112748000I-249999J0D01*
G01*
X153385999Y-112748000D01*
G75*
G02*
X153136000Y-112498001I0J249999D01*
G01*
X153136000Y-111847999D01*
G75*
G02*
X153385999Y-111598000I249999J0D01*
G01*
G37*
G36*
G01*
X155671999Y-113639000D02*
X156572001Y-113639000D01*
G75*
G02*
X156822000Y-113888999I0J-249999D01*
G01*
X156822000Y-114539001D01*
G75*
G02*
X156572001Y-114789000I-249999J0D01*
G01*
X155671999Y-114789000D01*
G75*
G02*
X155422000Y-114539001I0J249999D01*
G01*
X155422000Y-113888999D01*
G75*
G02*
X155671999Y-113639000I249999J0D01*
G01*
G37*
G36*
G01*
X155671999Y-111589000D02*
X156572001Y-111589000D01*
G75*
G02*
X156822000Y-111838999I0J-249999D01*
G01*
X156822000Y-112489001D01*
G75*
G02*
X156572001Y-112739000I-249999J0D01*
G01*
X155671999Y-112739000D01*
G75*
G02*
X155422000Y-112489001I0J249999D01*
G01*
X155422000Y-111838999D01*
G75*
G02*
X155671999Y-111589000I249999J0D01*
G01*
G37*
D16*
X159424000Y-112198000D03*
X160374000Y-114198000D03*
X158474000Y-114198000D03*
M02*
