%TF.GenerationSoftware,KiCad,Pcbnew,5.1.6-c6e7f7d~86~ubuntu18.04.1*%
%TF.CreationDate,2020-05-16T18:56:39+02:00*%
%TF.ProjectId,slimme-meter-tra,736c696d-6d65-42d6-9d65-7465722d7472,rev?*%
%TF.SameCoordinates,Original*%
%TF.FileFunction,Legend,Top*%
%TF.FilePolarity,Positive*%
%FSLAX46Y46*%
G04 Gerber Fmt 4.6, Leading zero omitted, Abs format (unit mm)*
G04 Created by KiCad (PCBNEW 5.1.6-c6e7f7d~86~ubuntu18.04.1) date 2020-05-16 18:56:39*
%MOMM*%
%LPD*%
G01*
G04 APERTURE LIST*
%ADD10C,0.700000*%
%ADD11C,0.200000*%
%ADD12C,0.150000*%
%ADD13C,0.120000*%
%ADD14C,0.015000*%
G04 APERTURE END LIST*
D10*
X127942857Y-75019047D02*
X128514285Y-75209523D01*
X129466666Y-75209523D01*
X129847619Y-75019047D01*
X130038095Y-74828571D01*
X130228571Y-74447619D01*
X130228571Y-74066666D01*
X130038095Y-73685714D01*
X129847619Y-73495238D01*
X129466666Y-73304761D01*
X128704761Y-73114285D01*
X128323809Y-72923809D01*
X128133333Y-72733333D01*
X127942857Y-72352380D01*
X127942857Y-71971428D01*
X128133333Y-71590476D01*
X128323809Y-71400000D01*
X128704761Y-71209523D01*
X129657142Y-71209523D01*
X130228571Y-71400000D01*
X131942857Y-75209523D02*
X131942857Y-72542857D01*
X131942857Y-72923809D02*
X132133333Y-72733333D01*
X132514285Y-72542857D01*
X133085714Y-72542857D01*
X133466666Y-72733333D01*
X133657142Y-73114285D01*
X133657142Y-75209523D01*
X133657142Y-73114285D02*
X133847619Y-72733333D01*
X134228571Y-72542857D01*
X134800000Y-72542857D01*
X135180952Y-72733333D01*
X135371428Y-73114285D01*
X135371428Y-75209523D01*
X138990476Y-75209523D02*
X138990476Y-73114285D01*
X138800000Y-72733333D01*
X138419047Y-72542857D01*
X137657142Y-72542857D01*
X137276190Y-72733333D01*
X138990476Y-75019047D02*
X138609523Y-75209523D01*
X137657142Y-75209523D01*
X137276190Y-75019047D01*
X137085714Y-74638095D01*
X137085714Y-74257142D01*
X137276190Y-73876190D01*
X137657142Y-73685714D01*
X138609523Y-73685714D01*
X138990476Y-73495238D01*
X140895238Y-75209523D02*
X140895238Y-72542857D01*
X140895238Y-73304761D02*
X141085714Y-72923809D01*
X141276190Y-72733333D01*
X141657142Y-72542857D01*
X142038095Y-72542857D01*
X142800000Y-72542857D02*
X144323809Y-72542857D01*
X143371428Y-71209523D02*
X143371428Y-74638095D01*
X143561904Y-75019047D01*
X143942857Y-75209523D01*
X144323809Y-75209523D01*
X145657142Y-75209523D02*
X145657142Y-72542857D01*
X145657142Y-72923809D02*
X145847619Y-72733333D01*
X146228571Y-72542857D01*
X146800000Y-72542857D01*
X147180952Y-72733333D01*
X147371428Y-73114285D01*
X147371428Y-75209523D01*
X147371428Y-73114285D02*
X147561904Y-72733333D01*
X147942857Y-72542857D01*
X148514285Y-72542857D01*
X148895238Y-72733333D01*
X149085714Y-73114285D01*
X149085714Y-75209523D01*
X152514285Y-75019047D02*
X152133333Y-75209523D01*
X151371428Y-75209523D01*
X150990476Y-75019047D01*
X150800000Y-74638095D01*
X150800000Y-73114285D01*
X150990476Y-72733333D01*
X151371428Y-72542857D01*
X152133333Y-72542857D01*
X152514285Y-72733333D01*
X152704761Y-73114285D01*
X152704761Y-73495238D01*
X150800000Y-73876190D01*
X153847619Y-72542857D02*
X155371428Y-72542857D01*
X154419047Y-71209523D02*
X154419047Y-74638095D01*
X154609523Y-75019047D01*
X154990476Y-75209523D01*
X155371428Y-75209523D01*
X158228571Y-75019047D02*
X157847619Y-75209523D01*
X157085714Y-75209523D01*
X156704761Y-75019047D01*
X156514285Y-74638095D01*
X156514285Y-73114285D01*
X156704761Y-72733333D01*
X157085714Y-72542857D01*
X157847619Y-72542857D01*
X158228571Y-72733333D01*
X158419047Y-73114285D01*
X158419047Y-73495238D01*
X156514285Y-73876190D01*
X160133333Y-75209523D02*
X160133333Y-72542857D01*
X160133333Y-73304761D02*
X160323809Y-72923809D01*
X160514285Y-72733333D01*
X160895238Y-72542857D01*
X161276190Y-72542857D01*
X162609523Y-73685714D02*
X165657142Y-73685714D01*
X167561904Y-75209523D02*
X167561904Y-71209523D01*
X169085714Y-71209523D01*
X169466666Y-71400000D01*
X169657142Y-71590476D01*
X169847619Y-71971428D01*
X169847619Y-72542857D01*
X169657142Y-72923809D01*
X169466666Y-73114285D01*
X169085714Y-73304761D01*
X167561904Y-73304761D01*
X173657142Y-75209523D02*
X171371428Y-75209523D01*
X172514285Y-75209523D02*
X172514285Y-71209523D01*
X172133333Y-71780952D01*
X171752380Y-72161904D01*
X171371428Y-72352380D01*
D11*
X125600000Y-93000000D02*
X175600000Y-93000000D01*
X125600000Y-93000000D02*
X125600000Y-125000000D01*
X175600000Y-125000000D02*
X175600000Y-93000000D01*
X125600000Y-125000000D02*
X175600000Y-125000000D01*
X124000000Y-82400000D02*
X124000000Y-89400000D01*
X168600000Y-91000000D02*
X175600000Y-91000000D01*
X125600000Y-55800000D02*
X132600000Y-55800000D01*
X175600000Y-91000000D02*
X175600000Y-64400000D01*
X124000000Y-89400000D02*
X168600000Y-89400000D01*
X168600000Y-89400000D02*
X168600000Y-91000000D01*
X125600000Y-55800000D02*
X125600000Y-82400000D01*
X125600000Y-82400000D02*
X124000000Y-82400000D01*
X132600000Y-57400000D02*
X177200000Y-57400000D01*
X132600000Y-57400000D02*
X132600000Y-55800000D01*
X177200000Y-64400000D02*
X177200000Y-57400000D01*
X175600000Y-64400000D02*
X177200000Y-64400000D01*
X119000000Y-73400000D02*
X119000000Y-80400000D01*
X119000000Y-73400000D02*
X102000000Y-73400000D01*
X119000000Y-80400000D02*
X122000000Y-80400000D01*
X122000000Y-125000000D02*
X122000000Y-80400000D01*
X102000000Y-73400000D02*
X102000000Y-125000000D01*
X102000000Y-125000000D02*
X122000000Y-125000000D01*
X97000000Y-73400000D02*
X97000000Y-80400000D01*
X97000000Y-73400000D02*
X80000000Y-73400000D01*
X97000000Y-80400000D02*
X100000000Y-80400000D01*
X100000000Y-125000000D02*
X100000000Y-80400000D01*
X80000000Y-73400000D02*
X80000000Y-125000000D01*
X80000000Y-125000000D02*
X100000000Y-125000000D01*
X119000000Y-38000000D02*
X119000000Y-45000000D01*
X122000000Y-71600000D02*
X102000000Y-71600000D01*
X102000000Y-38000000D02*
X119000000Y-38000000D01*
X122000000Y-45000000D02*
X122000000Y-71600000D01*
X119000000Y-45000000D02*
X122000000Y-45000000D01*
X102030000Y-71597000D02*
X102030000Y-37997000D01*
X97000000Y-38000000D02*
X97000000Y-45000000D01*
X100000000Y-71600000D02*
X80000000Y-71600000D01*
X80000000Y-38000000D02*
X97000000Y-38000000D01*
X100000000Y-45000000D02*
X100000000Y-71600000D01*
X97000000Y-45000000D02*
X100000000Y-45000000D01*
X80030000Y-71597000D02*
X80030000Y-37997000D01*
D12*
X129186000Y-121448000D02*
X162266000Y-121448000D01*
X164266000Y-119448000D02*
X164266000Y-96788000D01*
X162266000Y-94788000D02*
X136186000Y-94788000D01*
X129186000Y-96938000D02*
X129186000Y-104798000D01*
X129186000Y-104798000D02*
X130186000Y-104798000D01*
X130186000Y-104798000D02*
X130186000Y-113018000D01*
X130186000Y-113018000D02*
X129186000Y-113018000D01*
X129186000Y-113018000D02*
X129186000Y-121447999D01*
X129186000Y-96938000D02*
X135186000Y-96938000D01*
X136186000Y-95948000D02*
X136186000Y-94788000D01*
X136186000Y-94788000D02*
X136186000Y-94788000D01*
X135186000Y-96938000D02*
G75*
G03*
X136186000Y-95938000I0J1000000D01*
G01*
X162266000Y-121448000D02*
G75*
G03*
X164266000Y-119448000I0J2000000D01*
G01*
X164266000Y-96788000D02*
G75*
G03*
X162266000Y-94788000I-2000000J0D01*
G01*
D13*
X170406000Y-115798000D02*
X167746000Y-115798000D01*
X170406000Y-100438000D02*
X167746000Y-100438000D01*
X167746000Y-113708000D02*
X167746000Y-110148000D01*
X167746000Y-108628000D02*
X167746000Y-105068000D01*
X167746000Y-103548000D02*
X167746000Y-100438000D01*
X170406000Y-115798000D02*
X170406000Y-112688000D01*
X167746000Y-115228000D02*
X166226000Y-115228000D01*
X167746000Y-115798000D02*
X167746000Y-115228000D01*
X170406000Y-101008000D02*
X170406000Y-100438000D01*
X170406000Y-111168000D02*
X170406000Y-107608000D01*
X170406000Y-106088000D02*
X170406000Y-102528000D01*
X154546000Y-112936748D02*
X154546000Y-113459252D01*
X153126000Y-112936748D02*
X153126000Y-113459252D01*
X156832000Y-112927748D02*
X156832000Y-113450252D01*
X155412000Y-112927748D02*
X155412000Y-113450252D01*
X161004000Y-112438000D02*
X160074000Y-112438000D01*
X157844000Y-112438000D02*
X158774000Y-112438000D01*
X157844000Y-112438000D02*
X157844000Y-114598000D01*
X161004000Y-112438000D02*
X161004000Y-113898000D01*
D12*
X126566666Y-123252380D02*
X126566666Y-123966666D01*
X126519047Y-124109523D01*
X126423809Y-124204761D01*
X126280952Y-124252380D01*
X126185714Y-124252380D01*
X126995238Y-123347619D02*
X127042857Y-123300000D01*
X127138095Y-123252380D01*
X127376190Y-123252380D01*
X127471428Y-123300000D01*
X127519047Y-123347619D01*
X127566666Y-123442857D01*
X127566666Y-123538095D01*
X127519047Y-123680952D01*
X126947619Y-124252380D01*
X127566666Y-124252380D01*
X126866666Y-58152380D02*
X126866666Y-58866666D01*
X126819047Y-59009523D01*
X126723809Y-59104761D01*
X126580952Y-59152380D01*
X126485714Y-59152380D01*
X127771428Y-58152380D02*
X127580952Y-58152380D01*
X127485714Y-58200000D01*
X127438095Y-58247619D01*
X127342857Y-58390476D01*
X127295238Y-58580952D01*
X127295238Y-58961904D01*
X127342857Y-59057142D01*
X127390476Y-59104761D01*
X127485714Y-59152380D01*
X127676190Y-59152380D01*
X127771428Y-59104761D01*
X127819047Y-59057142D01*
X127866666Y-58961904D01*
X127866666Y-58723809D01*
X127819047Y-58628571D01*
X127771428Y-58580952D01*
X127676190Y-58533333D01*
X127485714Y-58533333D01*
X127390476Y-58580952D01*
X127342857Y-58628571D01*
X127295238Y-58723809D01*
X102652380Y-119733333D02*
X103366666Y-119733333D01*
X103509523Y-119780952D01*
X103604761Y-119876190D01*
X103652380Y-120019047D01*
X103652380Y-120114285D01*
X102985714Y-118828571D02*
X103652380Y-118828571D01*
X102604761Y-119066666D02*
X103319047Y-119304761D01*
X103319047Y-118685714D01*
X80852380Y-119133333D02*
X81566666Y-119133333D01*
X81709523Y-119180952D01*
X81804761Y-119276190D01*
X81852380Y-119419047D01*
X81852380Y-119514285D01*
X80852380Y-118752380D02*
X80852380Y-118085714D01*
X81852380Y-118514285D01*
X107552380Y-43433333D02*
X108266666Y-43433333D01*
X108409523Y-43480952D01*
X108504761Y-43576190D01*
X108552380Y-43719047D01*
X108552380Y-43814285D01*
X107552380Y-42480952D02*
X107552380Y-42957142D01*
X108028571Y-43004761D01*
X107980952Y-42957142D01*
X107933333Y-42861904D01*
X107933333Y-42623809D01*
X107980952Y-42528571D01*
X108028571Y-42480952D01*
X108123809Y-42433333D01*
X108361904Y-42433333D01*
X108457142Y-42480952D01*
X108504761Y-42528571D01*
X108552380Y-42623809D01*
X108552380Y-42861904D01*
X108504761Y-42957142D01*
X108457142Y-43004761D01*
X85452380Y-43033333D02*
X86166666Y-43033333D01*
X86309523Y-43080952D01*
X86404761Y-43176190D01*
X86452380Y-43319047D01*
X86452380Y-43414285D01*
X85452380Y-42652380D02*
X85452380Y-42033333D01*
X85833333Y-42366666D01*
X85833333Y-42223809D01*
X85880952Y-42128571D01*
X85928571Y-42080952D01*
X86023809Y-42033333D01*
X86261904Y-42033333D01*
X86357142Y-42080952D01*
X86404761Y-42128571D01*
X86452380Y-42223809D01*
X86452380Y-42509523D01*
X86404761Y-42604761D01*
X86357142Y-42652380D01*
X129938095Y-114652380D02*
X129938095Y-115461904D01*
X129985714Y-115557142D01*
X130033333Y-115604761D01*
X130128571Y-115652380D01*
X130319047Y-115652380D01*
X130414285Y-115604761D01*
X130461904Y-115557142D01*
X130509523Y-115461904D01*
X130509523Y-114652380D01*
X131509523Y-115652380D02*
X130938095Y-115652380D01*
X131223809Y-115652380D02*
X131223809Y-114652380D01*
X131128571Y-114795238D01*
X131033333Y-114890476D01*
X130938095Y-114938095D01*
D14*
X158820714Y-99299380D02*
X158249285Y-99299380D01*
X158535000Y-99299380D02*
X158535000Y-98299380D01*
X158439761Y-98442238D01*
X158344523Y-98537476D01*
X158249285Y-98585095D01*
X158820714Y-99299380D02*
X158249285Y-99299380D01*
X158535000Y-99299380D02*
X158535000Y-98299380D01*
X158439761Y-98442238D01*
X158344523Y-98537476D01*
X158249285Y-98585095D01*
D12*
X168742666Y-116250380D02*
X168742666Y-116964666D01*
X168695047Y-117107523D01*
X168599809Y-117202761D01*
X168456952Y-117250380D01*
X168361714Y-117250380D01*
X169742666Y-117250380D02*
X169171238Y-117250380D01*
X169456952Y-117250380D02*
X169456952Y-116250380D01*
X169361714Y-116393238D01*
X169266476Y-116488476D01*
X169171238Y-116536095D01*
X154288380Y-110570666D02*
X153812190Y-110904000D01*
X154288380Y-111142095D02*
X153288380Y-111142095D01*
X153288380Y-110761142D01*
X153336000Y-110665904D01*
X153383619Y-110618285D01*
X153478857Y-110570666D01*
X153621714Y-110570666D01*
X153716952Y-110618285D01*
X153764571Y-110665904D01*
X153812190Y-110761142D01*
X153812190Y-111142095D01*
X153383619Y-110189714D02*
X153336000Y-110142095D01*
X153288380Y-110046857D01*
X153288380Y-109808761D01*
X153336000Y-109713523D01*
X153383619Y-109665904D01*
X153478857Y-109618285D01*
X153574095Y-109618285D01*
X153716952Y-109665904D01*
X154288380Y-110237333D01*
X154288380Y-109618285D01*
X156828380Y-110570666D02*
X156352190Y-110904000D01*
X156828380Y-111142095D02*
X155828380Y-111142095D01*
X155828380Y-110761142D01*
X155876000Y-110665904D01*
X155923619Y-110618285D01*
X156018857Y-110570666D01*
X156161714Y-110570666D01*
X156256952Y-110618285D01*
X156304571Y-110665904D01*
X156352190Y-110761142D01*
X156352190Y-111142095D01*
X156828380Y-109618285D02*
X156828380Y-110189714D01*
X156828380Y-109904000D02*
X155828380Y-109904000D01*
X155971238Y-109999238D01*
X156066476Y-110094476D01*
X156114095Y-110189714D01*
X160225619Y-110499238D02*
X160178000Y-110594476D01*
X160082761Y-110689714D01*
X159939904Y-110832571D01*
X159892285Y-110927809D01*
X159892285Y-111023047D01*
X160130380Y-110975428D02*
X160082761Y-111070666D01*
X159987523Y-111165904D01*
X159797047Y-111213523D01*
X159463714Y-111213523D01*
X159273238Y-111165904D01*
X159178000Y-111070666D01*
X159130380Y-110975428D01*
X159130380Y-110784952D01*
X159178000Y-110689714D01*
X159273238Y-110594476D01*
X159463714Y-110546857D01*
X159797047Y-110546857D01*
X159987523Y-110594476D01*
X160082761Y-110689714D01*
X160130380Y-110784952D01*
X160130380Y-110975428D01*
X160130380Y-109594476D02*
X160130380Y-110165904D01*
X160130380Y-109880190D02*
X159130380Y-109880190D01*
X159273238Y-109975428D01*
X159368476Y-110070666D01*
X159416095Y-110165904D01*
M02*
