%TF.GenerationSoftware,KiCad,Pcbnew,5.1.6-c6e7f7d~86~ubuntu18.04.1*%
%TF.CreationDate,2020-05-16T18:56:39+02:00*%
%TF.ProjectId,slimme-meter-tra,736c696d-6d65-42d6-9d65-7465722d7472,rev?*%
%TF.SameCoordinates,Original*%
%TF.FileFunction,Copper,L1,Top*%
%TF.FilePolarity,Positive*%
%FSLAX46Y46*%
G04 Gerber Fmt 4.6, Leading zero omitted, Abs format (unit mm)*
G04 Created by KiCad (PCBNEW 5.1.6-c6e7f7d~86~ubuntu18.04.1) date 2020-05-16 18:56:39*
%MOMM*%
%LPD*%
G01*
G04 APERTURE LIST*
%TA.AperFunction,NonConductor*%
%ADD10C,0.300000*%
%TD*%
%TA.AperFunction,SMDPad,CuDef*%
%ADD11R,2.500000X5.000000*%
%TD*%
%TA.AperFunction,SMDPad,CuDef*%
%ADD12R,5.000000X2.500000*%
%TD*%
%TA.AperFunction,ComponentPad*%
%ADD13R,2.500000X5.000000*%
%TD*%
%TA.AperFunction,ComponentPad*%
%ADD14R,5.000000X2.500000*%
%TD*%
%TA.AperFunction,SMDPad,CuDef*%
%ADD15R,1.270000X3.430001*%
%TD*%
%TA.AperFunction,SMDPad,CuDef*%
%ADD16R,2.510000X1.000000*%
%TD*%
%TA.AperFunction,SMDPad,CuDef*%
%ADD17R,0.800000X0.900000*%
%TD*%
%TA.AperFunction,Conductor*%
%ADD18C,0.500000*%
%TD*%
%TA.AperFunction,Conductor*%
%ADD19C,0.250000*%
%TD*%
G04 APERTURE END LIST*
D10*
X168221428Y-56757142D02*
X166721428Y-57114285D01*
X167792857Y-57400000D01*
X166721428Y-57685714D01*
X168221428Y-58042857D01*
D11*
X126800000Y-103000000D03*
X126800000Y-117500000D03*
D12*
X135600000Y-123500000D03*
X168100000Y-123500000D03*
D11*
X174200000Y-115000000D03*
X174200000Y-100500000D03*
D12*
X165600000Y-94400000D03*
X133100000Y-94400000D03*
D13*
X126900000Y-65800000D03*
X126900000Y-79800000D03*
D14*
X134000000Y-88200000D03*
X166100000Y-88100000D03*
D13*
X174400000Y-81000000D03*
X174400000Y-66900000D03*
D14*
X167200000Y-58600000D03*
X135100000Y-58600000D03*
D12*
X116500000Y-74565000D03*
X106145000Y-74565000D03*
D11*
X104875000Y-80800000D03*
X104875000Y-113400000D03*
D12*
X106000000Y-122063000D03*
X116500000Y-122190000D03*
D11*
X120700000Y-114900000D03*
X120700000Y-82820000D03*
D12*
X94500000Y-74565000D03*
X84145000Y-74565000D03*
D11*
X82875000Y-80800000D03*
X82875000Y-113400000D03*
D12*
X84000000Y-122063000D03*
X94500000Y-122190000D03*
D11*
X98700000Y-114900000D03*
X98700000Y-82820000D03*
X120800000Y-47525000D03*
X120800000Y-61600000D03*
D12*
X116500000Y-68861000D03*
X106037000Y-68861000D03*
D11*
X104900000Y-60000000D03*
X104800000Y-45500000D03*
D12*
X106037000Y-39270000D03*
X116500000Y-39270000D03*
D11*
X98800000Y-47525000D03*
X98800000Y-61600000D03*
D12*
X94500000Y-68861000D03*
X84037000Y-68861000D03*
D11*
X82900000Y-60000000D03*
X82800000Y-45500000D03*
D12*
X84037000Y-39270000D03*
X94500000Y-39270000D03*
D15*
X146260000Y-98220000D03*
X143720000Y-95300000D03*
X141180000Y-98220000D03*
X153880000Y-95300000D03*
X138640000Y-95300000D03*
X156420000Y-98220000D03*
X151340000Y-98220000D03*
X148800000Y-95300000D03*
X156376000Y-121135000D03*
X153836000Y-118215000D03*
X151296000Y-121135000D03*
X148756000Y-118215000D03*
X146216000Y-121135000D03*
X143676000Y-118215000D03*
X141136000Y-121135000D03*
X138596000Y-118215000D03*
D16*
X167421000Y-104308000D03*
X167421000Y-109388000D03*
X167421000Y-114468000D03*
X170731000Y-101768000D03*
X170731000Y-106848000D03*
X170731000Y-111928000D03*
%TA.AperFunction,SMDPad,CuDef*%
G36*
G01*
X153385999Y-113648000D02*
X154286001Y-113648000D01*
G75*
G02*
X154536000Y-113897999I0J-249999D01*
G01*
X154536000Y-114548001D01*
G75*
G02*
X154286001Y-114798000I-249999J0D01*
G01*
X153385999Y-114798000D01*
G75*
G02*
X153136000Y-114548001I0J249999D01*
G01*
X153136000Y-113897999D01*
G75*
G02*
X153385999Y-113648000I249999J0D01*
G01*
G37*
%TD.AperFunction*%
%TA.AperFunction,SMDPad,CuDef*%
G36*
G01*
X153385999Y-111598000D02*
X154286001Y-111598000D01*
G75*
G02*
X154536000Y-111847999I0J-249999D01*
G01*
X154536000Y-112498001D01*
G75*
G02*
X154286001Y-112748000I-249999J0D01*
G01*
X153385999Y-112748000D01*
G75*
G02*
X153136000Y-112498001I0J249999D01*
G01*
X153136000Y-111847999D01*
G75*
G02*
X153385999Y-111598000I249999J0D01*
G01*
G37*
%TD.AperFunction*%
%TA.AperFunction,SMDPad,CuDef*%
G36*
G01*
X155671999Y-113639000D02*
X156572001Y-113639000D01*
G75*
G02*
X156822000Y-113888999I0J-249999D01*
G01*
X156822000Y-114539001D01*
G75*
G02*
X156572001Y-114789000I-249999J0D01*
G01*
X155671999Y-114789000D01*
G75*
G02*
X155422000Y-114539001I0J249999D01*
G01*
X155422000Y-113888999D01*
G75*
G02*
X155671999Y-113639000I249999J0D01*
G01*
G37*
%TD.AperFunction*%
%TA.AperFunction,SMDPad,CuDef*%
G36*
G01*
X155671999Y-111589000D02*
X156572001Y-111589000D01*
G75*
G02*
X156822000Y-111838999I0J-249999D01*
G01*
X156822000Y-112489001D01*
G75*
G02*
X156572001Y-112739000I-249999J0D01*
G01*
X155671999Y-112739000D01*
G75*
G02*
X155422000Y-112489001I0J249999D01*
G01*
X155422000Y-111838999D01*
G75*
G02*
X155671999Y-111589000I249999J0D01*
G01*
G37*
%TD.AperFunction*%
D17*
X159424000Y-112198000D03*
X160374000Y-114198000D03*
X158474000Y-114198000D03*
D18*
X168100000Y-123700000D02*
X169900000Y-123700000D01*
X169900000Y-123700000D02*
X170000000Y-123800000D01*
X84650000Y-60000000D02*
X84750000Y-60100000D01*
X82900000Y-60000000D02*
X84650000Y-60000000D01*
X84750000Y-60100000D02*
X89400000Y-60100000D01*
X89400000Y-60100000D02*
X92600000Y-56900000D01*
X92600000Y-56900000D02*
X99400000Y-56900000D01*
X102500000Y-60000000D02*
X104900000Y-60000000D01*
X99400000Y-56900000D02*
X102500000Y-60000000D01*
X100550000Y-61600000D02*
X100900000Y-61950000D01*
X98800000Y-61600000D02*
X100550000Y-61600000D01*
X100900000Y-61950000D02*
X100900000Y-62000000D01*
X100900000Y-62000000D02*
X103000000Y-64100000D01*
X103000000Y-64100000D02*
X109400000Y-64100000D01*
X111900000Y-61600000D02*
X120800000Y-61600000D01*
X109400000Y-64100000D02*
X111900000Y-61600000D01*
X102100000Y-80800000D02*
X104875000Y-80800000D01*
X97200000Y-78300000D02*
X99600000Y-78300000D01*
X99600000Y-78300000D02*
X102100000Y-80800000D01*
X82875000Y-80800000D02*
X94700000Y-80800000D01*
X94700000Y-80800000D02*
X97200000Y-78300000D01*
X100450000Y-82820000D02*
X100470000Y-82800000D01*
X98700000Y-82820000D02*
X100450000Y-82820000D01*
X100470000Y-82800000D02*
X100800000Y-82800000D01*
X100800000Y-82800000D02*
X102800000Y-84800000D01*
X102800000Y-84800000D02*
X108200000Y-84800000D01*
X110180000Y-82820000D02*
X120700000Y-82820000D01*
X108200000Y-84800000D02*
X110180000Y-82820000D01*
X125050000Y-103000000D02*
X124950000Y-102900000D01*
X126800000Y-103000000D02*
X125050000Y-103000000D01*
X124950000Y-102900000D02*
X122000000Y-102900000D01*
X120700000Y-104200000D02*
X120700000Y-114900000D01*
X122000000Y-102900000D02*
X120700000Y-104200000D01*
X87000000Y-122063000D02*
X88100000Y-120963000D01*
X84000000Y-122063000D02*
X87000000Y-122063000D01*
X88100000Y-120963000D02*
X88137000Y-120963000D01*
X88137000Y-120963000D02*
X89500000Y-119600000D01*
X89500000Y-119600000D02*
X99500000Y-119600000D01*
X101963000Y-122063000D02*
X106000000Y-122063000D01*
X99500000Y-119600000D02*
X101963000Y-122063000D01*
X87037000Y-68861000D02*
X89600000Y-66298000D01*
X84037000Y-68861000D02*
X87037000Y-68861000D01*
X89600000Y-66298000D02*
X98998000Y-66298000D01*
X101561000Y-68861000D02*
X106037000Y-68861000D01*
X98998000Y-66298000D02*
X101561000Y-68861000D01*
X122550000Y-61600000D02*
X123900000Y-62950000D01*
X120800000Y-61600000D02*
X122550000Y-61600000D01*
X123900000Y-62950000D02*
X123900000Y-65500000D01*
X124200000Y-65800000D02*
X126900000Y-65800000D01*
X123900000Y-65500000D02*
X124200000Y-65800000D01*
X113600000Y-58600000D02*
X135100000Y-58600000D01*
X104900000Y-60000000D02*
X112200000Y-60000000D01*
X112200000Y-60000000D02*
X113600000Y-58600000D01*
X165600000Y-88600000D02*
X166100000Y-88100000D01*
X165600000Y-94300000D02*
X165600000Y-88600000D01*
X167421000Y-110388000D02*
X164758000Y-113051000D01*
X167421000Y-109388000D02*
X167421000Y-110388000D01*
X164742000Y-114198000D02*
X160374000Y-114198000D01*
X164758000Y-114214000D02*
X164742000Y-114198000D01*
X164758000Y-113051000D02*
X164758000Y-114214000D01*
X167421000Y-108388000D02*
X168568000Y-107241000D01*
X167421000Y-109388000D02*
X167421000Y-108388000D01*
X170731000Y-103563002D02*
X170731000Y-102768000D01*
X168568000Y-105726002D02*
X170731000Y-103563002D01*
X170731000Y-102768000D02*
X170731000Y-101768000D01*
X168568000Y-107241000D02*
X168568000Y-105726002D01*
X135600000Y-123800000D02*
X137100000Y-123800000D01*
X157371003Y-123300000D02*
X157371001Y-123300002D01*
X150300999Y-123300002D02*
X150300997Y-123300000D01*
X152291001Y-123300002D02*
X150300999Y-123300002D01*
X164758000Y-114214000D02*
X164758000Y-117262000D01*
X158720000Y-123300000D02*
X157371003Y-123300000D01*
X147211003Y-123300000D02*
X147211001Y-123300002D01*
X164758000Y-117262000D02*
X158720000Y-123300000D01*
X155380997Y-123300000D02*
X152291003Y-123300000D01*
X152291003Y-123300000D02*
X152291001Y-123300002D01*
X150300997Y-123300000D02*
X147211003Y-123300000D01*
X141136000Y-123009990D02*
X141136000Y-121135000D01*
X147211001Y-123300002D02*
X145220999Y-123300002D01*
X157371001Y-123300002D02*
X155380999Y-123300002D01*
X145220999Y-123300002D02*
X145220997Y-123300000D01*
X145220997Y-123300000D02*
X141426010Y-123300000D01*
X155380999Y-123300002D02*
X155380997Y-123300000D01*
X141426010Y-123300000D02*
X141136000Y-123009990D01*
X135600000Y-117900000D02*
X135600000Y-123800000D01*
X141136000Y-121135000D02*
X141136000Y-118920000D01*
X141100000Y-118884000D02*
X141100000Y-117500000D01*
X137500000Y-116000000D02*
X135600000Y-117900000D01*
X141136000Y-118920000D02*
X141100000Y-118884000D01*
X141100000Y-117500000D02*
X139600000Y-116000000D01*
X139600000Y-116000000D02*
X137500000Y-116000000D01*
X170731000Y-112928000D02*
X169191000Y-114468000D01*
X170731000Y-111928000D02*
X170731000Y-112928000D01*
X169191000Y-114468000D02*
X167421000Y-114468000D01*
X167421000Y-115468000D02*
X167421000Y-114468000D01*
X167421000Y-115588962D02*
X167421000Y-115468000D01*
X140862000Y-124100000D02*
X158909962Y-124100000D01*
X158909962Y-124100000D02*
X167421000Y-115588962D01*
X138596000Y-118215000D02*
X138596000Y-121834000D01*
X138596000Y-121834000D02*
X140862000Y-124100000D01*
X156138000Y-114198000D02*
X156122000Y-114214000D01*
X158474000Y-114198000D02*
X156138000Y-114198000D01*
X167421000Y-106217000D02*
X167421000Y-104308000D01*
X160340001Y-113297999D02*
X167421000Y-106217000D01*
X158474000Y-114198000D02*
X158474000Y-114148000D01*
X159324001Y-113297999D02*
X160340001Y-113297999D01*
X158474000Y-114148000D02*
X159324001Y-113297999D01*
X153836000Y-114223000D02*
X153836000Y-118215000D01*
D19*
X153836000Y-113648000D02*
X154286000Y-113198000D01*
X153836000Y-114223000D02*
X153836000Y-113648000D01*
X159424000Y-112248000D02*
X159424000Y-112198000D01*
X158474000Y-113198000D02*
X159424000Y-112248000D01*
X154286000Y-113198000D02*
X158474000Y-113198000D01*
D18*
X153845000Y-112164000D02*
X153836000Y-112173000D01*
X156122000Y-112164000D02*
X153845000Y-112164000D01*
X153136000Y-112173000D02*
X153836000Y-112173000D01*
X151972997Y-112173000D02*
X153136000Y-112173000D01*
X138640000Y-98840003D02*
X151972997Y-112173000D01*
X138640000Y-95300000D02*
X138640000Y-98840003D01*
X148756000Y-116000000D02*
X148756000Y-118215000D01*
X148056000Y-115300000D02*
X148756000Y-116000000D01*
X137100000Y-115300000D02*
X148056000Y-115300000D01*
X126800000Y-117500000D02*
X134900000Y-117500000D01*
X134900000Y-117500000D02*
X137100000Y-115300000D01*
X82800000Y-45500000D02*
X88600000Y-45500000D01*
X90625000Y-47525000D02*
X98800000Y-47525000D01*
X88600000Y-45500000D02*
X90625000Y-47525000D01*
X91400000Y-114900000D02*
X98700000Y-114900000D01*
X82875000Y-113400000D02*
X89900000Y-113400000D01*
X89900000Y-113400000D02*
X91400000Y-114900000D01*
M02*
